<?xml version="1.0" encoding="utf-8"?>
<svg viewBox="0 0 448 512" xmlns="http://www.w3.org/2000/svg">
  <path d="M 117.862 403.316 C 104.244 403.316 95.733 388.574 102.542 376.781 C 105.702 371.308 111.542 367.936 117.862 367.936 C 131.479 367.936 139.99 382.678 133.182 394.471 C 130.022 399.944 124.182 403.316 117.862 403.316 Z M 170.931 367.936 C 184.548 367.936 193.059 382.678 186.251 394.471 C 183.091 399.944 177.251 403.316 170.931 403.316 C 157.313 403.316 148.802 388.574 155.611 376.781 C 158.771 371.308 164.611 367.936 170.931 367.936 Z M 170.931 155.66 C 184.548 155.66 193.059 170.402 186.251 182.195 C 183.091 187.668 177.251 191.04 170.931 191.04 C 157.313 191.04 148.802 176.298 155.611 164.505 C 158.771 159.032 164.611 155.66 170.931 155.66 Z M 170.931 297.178 C 157.313 297.178 148.802 282.436 155.611 270.643 C 158.771 265.17 164.611 261.798 170.931 261.798 C 184.548 261.798 193.059 276.54 186.251 288.333 C 183.091 293.806 177.251 297.178 170.931 297.178 Z M 277.069 367.936 C 290.687 367.936 299.198 382.678 292.389 394.471 C 289.229 399.944 283.389 403.316 277.069 403.316 C 263.452 403.316 254.941 388.574 261.749 376.781 C 264.909 371.308 270.749 367.936 277.069 367.936 Z M 277.069 191.04 C 263.452 191.04 254.941 176.298 261.749 164.505 C 264.909 159.032 270.749 155.66 277.069 155.66 C 290.687 155.66 299.198 170.402 292.389 182.195 C 289.229 187.668 283.389 191.04 277.069 191.04 Z M 277.069 261.798 C 290.687 261.798 299.198 276.54 292.389 288.333 C 289.229 293.806 283.389 297.178 277.069 297.178 C 263.452 297.178 254.941 282.436 261.749 270.643 C 264.909 265.17 270.749 261.798 277.069 261.798 Z M 224 403.316 C 210.382 403.316 201.872 388.574 208.68 376.781 C 211.84 371.308 217.68 367.936 224 367.936 C 237.618 367.936 246.128 382.678 239.32 394.471 C 236.16 399.944 230.32 403.316 224 403.316 Z M 224 155.66 C 237.618 155.66 246.128 170.402 239.32 182.195 C 236.16 187.668 230.32 191.04 224 191.04 C 210.382 191.04 201.872 176.298 208.68 164.505 C 211.84 159.032 217.68 155.66 224 155.66 Z M 224 297.178 C 210.382 297.178 201.872 282.436 208.68 270.643 C 211.84 265.17 217.68 261.798 224 261.798 C 237.618 261.798 246.128 276.54 239.32 288.333 C 236.16 293.806 230.32 297.178 224 297.178 Z M 330.138 367.936 C 343.756 367.936 352.267 382.678 345.458 394.471 C 342.298 399.944 336.458 403.316 330.138 403.316 C 316.521 403.316 308.01 388.574 314.818 376.781 C 317.978 371.308 323.818 367.936 330.138 367.936 Z M 330.138 155.66 C 343.756 155.66 352.267 170.402 345.458 182.195 C 342.298 187.668 336.458 191.04 330.138 191.04 C 316.521 191.04 308.01 176.298 314.818 164.505 C 317.978 159.032 323.818 155.66 330.138 155.66 Z M 117.862 191.04 C 104.244 191.04 95.733 176.298 102.542 164.505 C 105.702 159.032 111.542 155.66 117.862 155.66 C 131.479 155.66 139.99 170.402 133.182 182.195 C 130.022 187.668 124.182 191.04 117.862 191.04 Z M 330.138 261.798 C 343.756 261.798 352.267 276.54 345.458 288.333 C 342.298 293.806 336.458 297.178 330.138 297.178 C 316.521 297.178 308.01 282.436 314.818 270.643 C 317.978 265.17 323.818 261.798 330.138 261.798 Z M 117.862 297.178 C 104.244 297.178 95.733 282.436 102.542 270.643 C 105.702 265.17 111.542 261.798 117.862 261.798 C 131.479 261.798 139.99 276.54 133.182 288.333 C 130.022 293.806 124.182 297.178 117.862 297.178 Z M 224 314.867 C 237.618 314.867 246.128 329.609 239.32 341.402 C 236.16 346.875 230.32 350.247 224 350.247 C 210.382 350.247 201.872 335.505 208.68 323.712 C 211.84 318.239 217.68 314.867 224 314.867 Z M 330.138 350.247 C 316.521 350.247 308.01 335.505 314.818 323.712 C 317.978 318.239 323.818 314.867 330.138 314.867 C 343.756 314.867 352.267 329.609 345.458 341.402 C 342.298 346.875 336.458 350.247 330.138 350.247 Z M 117.862 314.867 C 131.479 314.867 139.99 329.609 133.182 341.402 C 130.022 346.875 124.182 350.247 117.862 350.247 C 104.244 350.247 95.733 335.505 102.542 323.712 C 105.702 318.239 111.542 314.867 117.862 314.867 Z M 330.138 244.109 C 316.521 244.109 308.01 229.367 314.818 217.574 C 317.978 212.101 323.818 208.729 330.138 208.729 C 343.756 208.729 352.267 223.471 345.458 235.264 C 342.298 240.737 336.458 244.109 330.138 244.109 Z M 117.862 208.729 C 131.479 208.729 139.99 223.471 133.182 235.264 C 130.022 240.737 124.182 244.109 117.862 244.109 C 104.244 244.109 95.733 229.367 102.542 217.574 C 105.702 212.101 111.542 208.729 117.862 208.729 Z M 224 244.109 C 210.382 244.109 201.872 229.367 208.68 217.574 C 211.84 212.101 217.68 208.729 224 208.729 C 237.618 208.729 246.128 223.471 239.32 235.264 C 236.16 240.737 230.32 244.109 224 244.109 Z" style=""/>
</svg>