<?xml version="1.0" encoding="utf-8"?>
<svg viewBox="0 0 512 512" xmlns="http://www.w3.org/2000/svg">
  <path d="M 350.169 330.174 L 410.209 270.134 C 418.026 262.317 418.026 249.621 410.209 241.803 L 350.169 181.763 C 342.351 173.945 329.655 173.945 321.838 181.763 C 314.02 189.581 314.02 202.277 321.838 210.095 L 347.73 235.987 L 164.17 235.987 L 190.062 210.095 C 197.88 202.277 197.88 189.581 190.062 181.763 C 182.245 173.945 169.549 173.945 161.731 181.763 L 101.691 241.803 C 93.874 249.621 93.874 262.317 101.691 270.134 L 161.731 330.174 C 169.549 337.992 182.245 337.992 190.062 330.174 C 197.88 322.357 197.88 309.661 190.062 301.843 L 164.233 276.013 L 347.792 276.013 L 321.9 301.905 C 314.082 309.723 314.082 322.419 321.9 330.237 C 329.718 338.054 342.414 338.054 350.231 330.237 L 350.169 330.174 Z" style="" transform="matrix(1, 0, 0, 1, 7.105427357601002e-15, 0)"/>
</svg>