<svg xmlns="http://www.w3.org/2000/svg" viewBox="0 0 500 500"><path d="M65.294 197.708v41.354h56.111v114.59H65.294v41.172h160.681v-41.172h-53.378V197.708Zm52.467-50.464q0 5.83 2.095 10.84t5.921 8.471q3.826 3.644 9.2 5.648 5.374 2.004 11.933 2.004 13.481 0 21.406-7.561 7.924-7.56 7.924-19.402 0-11.841-7.924-19.401-7.925-7.561-21.406-7.561-6.559 0-11.933 2.004t-9.2 5.465q-3.826 3.644-5.921 8.654t-2.095 10.839Zm206.949 247.58h50.827v-159.77h71.049v-37.346h-71.049v-10.749q0-8.744 2.277-15.667 2.278-6.923 7.014-11.659 5.283-5.648 14.21-8.563 8.927-2.915 21.679-2.915 11.842 0 20.586 1.093 8.745 1.093 15.668 2.551l3.279-39.715q-6.194-1.093-11.933-2.004-5.738-.911-11.386-1.639-5.648-.729-11.568-1.185-5.921-.455-12.297-.455-20.222 0-36.618 5.192t-27.873 15.394q-11.477 10.202-17.671 25.141-6.194 14.938-6.194 34.431v10.749h-51.739v37.346h51.739Z"/></svg>