<?xml version="1.0" encoding="utf-8"?><svg viewBox="0 0 500 500" xmlns="http://www.w3.org/2000/svg"><path d="M 177.425 161.982 C 187.727 161.982 194.166 150.829 189.015 141.907 C 186.625 137.766 182.205 135.215 177.425 135.215 C 167.122 135.215 160.682 146.368 165.834 155.29 C 168.225 159.432 172.643 161.982 177.425 161.982 Z M 222.036 148.599 C 222.036 166.89 211.05 182.615 195.268 189.473 L 195.268 238.435 C 205.753 232.357 217.965 228.899 230.957 228.899 L 284.491 228.899 C 304.177 228.899 320.18 212.895 320.18 193.21 L 320.18 189.473 C 304.399 182.615 293.414 166.89 293.414 148.599 C 293.414 123.951 313.378 103.987 338.025 103.987 C 362.673 103.987 382.637 123.951 382.637 148.599 C 382.637 166.89 371.652 182.615 355.87 189.473 L 355.87 193.21 C 355.87 232.636 323.917 264.588 284.491 264.588 L 230.957 264.588 C 211.273 264.588 195.268 280.593 195.268 300.278 L 195.268 304.013 C 211.05 310.872 222.036 326.598 222.036 344.889 C 222.036 369.537 202.072 389.501 177.425 389.501 C 152.776 389.501 132.813 369.537 132.813 344.889 C 132.813 326.598 143.798 310.872 159.58 304.013 L 159.58 300.278 L 159.58 189.473 C 143.798 182.615 132.813 166.89 132.813 148.599 C 132.813 123.951 152.776 103.987 177.425 103.987 C 202.072 103.987 222.036 123.951 222.036 148.599 Z M 351.409 148.599 C 351.409 138.296 340.255 131.857 331.334 137.008 C 327.194 139.399 324.642 143.818 324.642 148.599 C 324.642 158.901 335.795 165.34 344.717 160.189 C 348.858 157.799 351.409 153.379 351.409 148.599 Z M 177.425 358.272 C 187.727 358.272 194.166 347.12 189.015 338.197 C 186.625 334.056 182.205 331.506 177.425 331.506 C 167.122 331.506 160.682 342.658 165.834 351.581 C 168.225 355.721 172.643 358.272 177.425 358.272 Z" style="" transform="matrix(1, 0, 0, 1, 5.684341886080802e-14, 5.684341886080802e-14)"/></svg>