<svg xmlns="http://www.w3.org/2000/svg" viewBox="0 0 500 500"><path d="M288.576 411.193v-39.181h58.771c5.551 0 10.203-1.877 13.958-5.632 3.755-3.755 5.632-8.407 5.632-13.958v-39.18c0-12.407 3.592-23.672 10.775-33.793 7.183-10.122 16.652-17.305 28.406-21.55v-6.856c-11.754-4.245-21.223-11.428-28.406-21.55-7.183-10.121-10.775-21.386-10.775-33.793v-39.18c0-5.551-1.877-10.203-5.632-13.958-3.755-3.755-8.407-5.632-13.958-5.632h-58.771V97.749h58.771c16.325 0 30.202 5.714 41.629 17.142 11.428 11.427 17.142 25.304 17.142 41.629v39.18c0 5.551 1.877 10.203 5.632 13.958 3.755 3.755 8.407 5.633 13.958 5.633h19.59v78.36h-19.59c-5.551 0-10.203 1.878-13.958 5.633-3.755 3.755-5.632 8.407-5.632 13.958v39.18c0 16.325-5.714 30.202-17.142 41.629-11.427 11.428-25.304 17.142-41.629 17.142h-58.771Zm-137.131 0c-16.326 0-30.202-5.714-41.629-17.142-11.428-11.427-17.142-25.304-17.142-41.629v-39.18c0-5.551-1.878-10.203-5.632-13.958-3.755-3.755-8.408-5.633-13.958-5.633h-19.59v-78.36h19.59c5.55 0 10.203-1.878 13.958-5.633 3.754-3.755 5.632-8.407 5.632-13.958v-39.18c0-16.325 5.714-30.202 17.142-41.629 11.427-11.428 25.303-17.142 41.629-17.142h58.771v39.181h-58.771c-5.551 0-10.204 1.877-13.958 5.632-3.755 3.755-5.632 8.407-5.632 13.958v39.18c0 12.407-3.592 23.672-10.775 33.793-7.183 10.122-16.652 17.305-28.406 21.55v6.856c11.754 4.245 21.223 11.428 28.406 21.55 7.183 10.121 10.775 21.386 10.775 33.793v39.18c0 5.551 1.877 10.203 5.632 13.958 3.754 3.755 8.407 5.632 13.958 5.632h58.771v39.181h-58.771Z" style="fill:#2e343f"/><g><path d="M290 119.124h-11.278c-4.797-11.502-14.41-20.223-29.945-22.705C236.976 94.532 206 94.124 206 94.124H92s-30.976.408-42.776 2.295c-15.535 2.482-25.148 11.203-29.945 22.705H8a8 8 0 0 0 0 16h7.581c-1.01 14.564 3.189 30.227 10.241 41.856 17.558 28.961 55.225 41.261 93.416 1.989 12.123-12.463 18.024-22.889 20.906-33.377 0 0 .498-2.466.762-3.29 1.094-3.42 4.271-6.179 8.011-6.179h.166c3.649 0 6.763 2.675 7.928 5.972.316.898.808 3.292.822 3.347 2.874 10.514 8.776 21.131 20.929 33.625 38.191 39.27 75.858 26.833 93.416-2.126 7.081-11.679 10.769-27.871 10.073-41.817H290a8 8 0 0 0 0-16zm-132.88 2.42c-2.518-.881-5.222-1.42-8.037-1.42h-.166c-2.815 0-5.519.539-8.037 1.42-1.042-4.254-2.775-7.42-5.15-11.42h26.541c-2.376 4-4.109 7.166-5.151 11.42z" style="fill:#2e343f" transform="translate(151.829 156.904) scale(.65481)"/></g><ellipse cx="298.654" cy="251.994" rx="13.731" ry="13.503" style="stroke:#bf616a;fill:#bf616a"/></svg>